<svg t="1711972615880" class="icon" viewBox="0 0 1024 1024" version="1.1" xmlns="http://www.w3.org/2000/svg" p-id="1528" width="64" height="64"><path d="M759.9 206.7c-64.5 0-117 54.1-117 120.6v475.3c0 83.4-64.9 151.2-144.6 151.2S353.7 886 353.7 802.6V761H427c26.6 0 48.2-21.6 48.2-48.2v-18.1h96.4c13.3 0 24.1-10.8 24.1-24.1v-241c0-13.3-10.8-24.1-24.1-24.1h-24.1v-241c0-26.6-21.6-48.2-48.2-48.2H210.1v289.2H186c-13.3 0-24.1 10.8-24.1 24.1v241c0 13.3 10.8 24.1 24.1 24.1h96.4v18.1c0 17.4 9.3 32.5 23.1 41v48.9c0 109.9 86.5 199.4 192.8 199.4s192.8-89.4 192.8-199.4V327.3c0-39.9 30.9-72.4 68.8-72.4s68.8 32.5 68.8 72.4v409.9c0 13.3 10.8 24.1 24.1 24.1s24.1-10.8 24.1-24.1V327.3c0-66.5-52.5-120.6-117-120.6z" fill="#4DBBF7" p-id="1529"></path><path d="M735.8 182.6c-64.5 0-117 54.1-117 120.6v475.3c0 83.4-64.9 151.2-144.6 151.2s-144.6-67.8-144.6-151.2v-41.6h25.1c26.6 0 48.2-21.6 48.2-48.2v-42.2h72.3c26.6 0 48.2-21.6 48.2-48.2V405.5c0-26.6-21.6-48.2-48.2-48.2V92.2c0-26.6-21.6-48.2-48.2-48.2H186c-26.6 0-48.2 21.6-48.2 48.2v265.1c-26.6 0-48.2 21.6-48.2 48.2v192.8c0 26.6 21.6 48.2 48.2 48.2h72.3v42.2c0 26.6 21.6 48.2 48.2 48.2h23.1v41.6c0 109.9 86.5 199.4 192.8 199.4S667 888.5 667 778.5V303.2c0-39.9 30.9-72.4 68.8-72.4s68.8 32.5 68.8 72.4v409.9h48.2V303.2c0-66.5-52.5-120.6-117-120.6zM186 92.2h241v265.1H186V92.2z m-48.2 337.4h337.4v168.7H137.8V429.6z" fill="" p-id="1530"></path><path d="M234.2 260.9h48.2v48.2h-48.2zM330.6 260.9h48.2v48.2h-48.2z" fill="" p-id="1531"></path></svg>